<svg xmlns="http://www.w3.org/2000/svg" viewBox="0 0 64 64" width="64" height="64">
  <defs>
    <radialGradient id="glow" cx="50%" cy="62%" r="55%">
      <stop offset="0%" stop-color="#ffcf9c"/>
      <stop offset="55%" stop-color="#c9a86a"/>
      <stop offset="100%" stop-color="#9c7f4a"/>
    </radialGradient>
  </defs>
  <rect width="64" height="64" rx="14" fill="#0a0908"/>
  <circle cx="32" cy="40" r="17" fill="url(#glow)" opacity="0.22"/>
  <!-- bottle -->
  <path d="M29 12h6v3l-1.5 2.5c-.4.7-.5 1.2-.5 2.2v3.6c0 1.6.6 2.4 1.8 3.4A11 11 0 0 1 39 41.5C39 48 36 52 32 52s-7-4-7-10.5a11 11 0 0 1 4.2-8.8c1.2-1 1.8-1.8 1.8-3.4v-3.6c0-1-.1-1.5-.5-2.2L29 15z"
        fill="none" stroke="#e7cf98" stroke-width="1.6" stroke-linejoin="round"/>
  <!-- inner light -->
  <circle cx="32" cy="41" r="4.5" fill="url(#glow)"/>
  <circle cx="29" cy="37" r="1" fill="#ffcf9c"/>
  <circle cx="35" cy="44" r="1" fill="#ffcf9c"/>
  <circle cx="31" cy="46" r="0.8" fill="#ffcf9c"/>
</svg>
